/* XPM */
static char * enemy_02_xpm[] = {
"64 64 76 1",
" 	c #980088",
".	c #FCF400",
"+	c #CCC400",
"@	c #B4AC00",
"#	c #FCA470",
"$	c #F0945C",
"%	c #FC7800",
"&	c #FC9840",
"*	c #FC8820",
"=	c #B47044",
"-	c #5C4020",
";	c #A86840",
">	c #D08050",
",	c #FCCCB0",
"'	c #000098",
")	c #4040FC",
"!	c #7C0000",
"~	c #E88C58",
"{	c #A0643C",
"]	c #905C34",
"^	c #FCB890",
"/	c #FCB080",
"(	c #FC9C60",
"_	c #BC7848",
":	c #80502C",
"<	c #FCA85C",
"[	c #FCC4A4",
"}	c #FCBC9C",
"|	c #744C28",
"1	c #DC8854",
"2	c #000000",
"3	c #000088",
"4	c #0000A8",
"5	c #0000BC",
"6	c #0000C8",
"7	c #000040",
"8	c #989898",
"9	c #0000B0",
"0	c #0000A4",
"a	c #00004C",
"b	c #545454",
"c	c #DCDCDC",
"d	c #0000EC",
"e	c #000064",
"f	c #00007C",
"g	c #0000E0",
"h	c #0000FC",
"i	c #0000D4",
"j	c #2024FC",
"k	c #000058",
"l	c #000070",
"m	c #707070",
"n	c #8C8C8C",
"o	c #4C4C4C",
"p	c #383838",
"q	c #202020",
"r	c #303030",
"s	c #646464",
"t	c #004040",
"u	c #007474",
"v	c #008484",
"w	c #008C8C",
"x	c #009C9C",
"y	c #007C7C",
"z	c #005858",
"A	c #00A8A8",
"B	c #20B4B4",
"C	c #007070",
"D	c #404040",
"E	c #48C0C0",
"F	c #00001C",
"G	c #00E4E4",
"H	c #00B4B4",
"I	c #00CCCC",
"J	c #343434",
"K	c #28200C",
"                         .......+++++@@@                        ",
"                         .......+++++@@@                        ",
"                         ..###..+++##$@@                        ",
"                         %&#$$$$$$$$$$&%                        ",
"                         %#####$$$###$$%                        ",
"                         *#=-;>###>;-=$*                        ",
"                        =*#,')!~>{!'),$*]                       ",
"                        =&#^//##(_~///$&]                       ",
"                        :<#^[[/>>{#}}#$<|                       ",
"                        =1(~(/######$1>=]                       ",
"                        21(~(#>===>#$=>=2                       ",
"                       221(~(#$$$$$#$=>=22                      ",
"                       222(#(#(###(#$1=222                      ",
"               345657 822211###~>~##$=:2228  36590              ",
"            33333337abb2b2{>=;{]]]:::|-2b2bc773333333           ",
"          39d6333e77ffff2b{>>==>==;:::|b22fffa2a3339gh3         ",
"         3ij60003a2a3333227a:;;~>_;::-a223333f72e0009hd33       ",
"        35g60003e27f0000kk7lea-:::--aa7ak00000a2al3005gi33      ",
"       33300033e72a4444444444laaaaaef444444444f72el3000033      ",
"      99di6933ee77f44m444444444ell444444444cn44a2eel3000033i    ",
"     69l7777eeee2a44444444444444ll4444444444444327eel3466ggg6   ",
"     l72222222222a00000000000000ll0000000000000322222222222     ",
"      lih4fea2222aellllllllllll3lallllllllllllfa22222222222     ",
"     3eaaaeele2222efllemellllll3lallllllloblllee222ll33333fl    ",
"     a7eleee77e222eefl7p7llllll3lalllllllppll3e222le77eeee77e   ",
"      9g93fle77a222eellllllllll3lallllllllllfae222aleelfleee7   ",
"     cm633fe7e77222ee7777777777aaa77777777777e2222flaelfleeec   ",
"     8f933leaee7q2p222222222222qqq222222222222p2r flaelfleef8   ",
"    834333e7efe  qqqqqqqqqqqqqqooorqqqqqqqqqqqqq  f4eelffleee   ",
"    mmf33leae47  qqqrporbbbbbbpbssrobbbbbororqqr  f4eel3fleeec  ",
"    77777e7e3f    qqqrorpppppppbssrppppppprprqq   atuvwxvwx7f8  ",
"    756tyxwwuq     qqrpqqqqqrrpbsspprrqqqqrrqq    azwxxxwywAee  ",
"   f00tAxwwwwzq    oppppppppoooooooooopppppppo    tzwxwwwuyxA7  ",
"  aleaABwyyCuyrq   pDDDDDDDooooooooooDDDDDpppp    tzvwAxwuuxA7  ",
"  a2atEAwCCCCCrq   qrrrrrrrrooooooooprrrrrrrrq    ttyvAxyuuwA7  ",
"  aaayEAyCCCCCrq  llleeaaf22qrrrrrrq2l3lllleefl   ttuyAxyyuwAA  ",
"   aaAEwyCCCCorq laF7777FF7aa2qqqq22ea77777777ef  ttuyAxyyuwAA  ",
"   atEEwCCCCCpqql7el3eeaa77FFa22222e77aeeeeeea7ee ttzyAxyyuyxA  ",
"   atEBwCCCCCpqqle30leeaaaaa77a222e7aeeeleeeeae7l ttzyxxyyuyxA  ",
"   eCEByCCCCCrq 7l43leeaaaaa77772eaaaeeeleeeeaef77ttzyxxwyuyxA  ",
"   eCEByCCCCCrq 793lleeaaaaa77772a7aaeeeleeeeaefl  ttywxwyuuwA  ",
"    CEByCCCCorq a93lleeaaaaa77ec2blaaeeeleeeeae0b  ttywxwyuuwA  ",
"    Cyzzzzzupqq  93lleeaaaaa77e82efaaeeeleeeeae0e  ttuyuCCCCyAA ",
"    trrqqqqqpq   93lleeaaaaa77e72llaaeeeleeeeae07  tttqqqqqqqCA ",
"    rzyECqqqqq   93lleeaaaaa77l72llaaeeeleeeeae07  tqqqtCzrttqA ",
"    uuBGurqpqq   93lleeaaaaa777c2b3aaeeefffeeaefb  tqrqzwvtzzrC ",
"    wvEGurqpq    93lleeaaa7777782eaa304llllf03afe   ppqtxxtzzr  ",
"    HvIGzrrrq    0ef00000aa77F2l233f3aeeeeeeeaff7   pprtwBzzCt  ",
"    xvGIzrrrr   393flllllf440ff277aFe3lllllllleF7    rrrvEutCt  ",
"   uvvGAtrrrr   3lllleea7777e72777227allllllla7F7    rrquEytCtq ",
"   uvwGwJqprr   7e33lleaaee777F27e727aeeeeeeea7Fe    rpqzBwtCtq ",
"   uyxIyJqpq    7777777777777F227 222222222222222    rpqzBxtzzr ",
"   vuxHzrqpq     7777777777F22227 77e77777777ea77    ppqtyCttzr ",
"   vzuytrqpq      7FFF22222222227 7aaaaaaa777777     pprqrpr2qr ",
"   rqor2rJpq         772222222227 7eelf3fleeaa7      p222rprqqq ",
"   22qqq2pqr          e7222272227  belf3fleeaab      q2222q2qpq ",
"    qq2r2qq           llll77F2227  eF7f3fle77Fe       22q22qqq  ",
"                      77722222227   FFFFFF22227                 ",
"                      f000faF227   e2Feffffflla                 ",
"                      le777F2227  22F2F7eeeeeele                ",
"                       f7777777ssb227f0033ffffeerrppooobbbbbbs  ",
"                    sssssbbboopprr22766666666eferrrrrrpppoobbbs ",
"                        ssssbbooooK2Fggggggggeeppbbbbbsssssss   ",
"                                                                "};
