/* XPM */
static char * door_13_xpm[] = {
"32 32 10 1",
" 	c #825734",
".	c #980088",
"+	c #4D381C",
"@	c #ABA589",
"#	c #5E4522",
"$	c #C0B390",
"%	c #635424",
"&	c #C3C1A2",
"*	c #D4C8AB",
"=	c #E0DEBC",
"    ........................    ",
"++++........................++++",
"@@@#........................+@@@",
"$$$#........................+@$$",
"$$$%........................+@&$",
"&$&#........................+@$&",
"$&$%........................+@&$",
"&$& ........................+@$&",
"&&& ........................+@&$",
"&*& ........................+@*&",
"*&* ........................+@&*",
"*** ........................+@**",
"&*& ........................+@*&",
"*** ........................+@**",
"&** ........................+@&*",
"*** ........................+@**",
"*** ........................+@**",
"*** ........................+@**",
"*** ........................+@**",
"*** ........................+@**",
"*** ........................+@**",
"*** ........................+@**",
"*** ........................+@**",
"===%........................+@*=",
"***%........................+@**",
"===#........................+@*=",
"***%........................+@**",
"===#........................+@*=",
"===#........................+@*=",
"===#........................+@*=",
"    ........................    ",
"++++........................++++"};
