/* XPM */
static char * enemy_04_xpm[] = {
"64 64 80 1",
" 	c #980088",
".	c #FCF400",
"+	c #CCC400",
"@	c #B4AC00",
"#	c #FCA470",
"$	c #F0945C",
"%	c #FC7800",
"&	c #FC9840",
"*	c #FC8820",
"=	c #B47044",
"-	c #5C4020",
";	c #A86840",
">	c #D08050",
",	c #FCCCB0",
"'	c #000098",
")	c #4040FC",
"!	c #7C0000",
"~	c #E88C58",
"{	c #A0643C",
"]	c #905C34",
"^	c #FCB890",
"/	c #FCB080",
"(	c #FC9C60",
"_	c #BC7848",
":	c #80502C",
"<	c #FCA85C",
"[	c #FCC4A4",
"}	c #FCBC9C",
"|	c #744C28",
"1	c #DC8854",
"2	c #000000",
"3	c #000088",
"4	c #0000A8",
"5	c #0000BC",
"6	c #0000C8",
"7	c #000040",
"8	c #989898",
"9	c #0000B0",
"0	c #0000A4",
"a	c #00004C",
"b	c #545454",
"c	c #DCDCDC",
"d	c #0000EC",
"e	c #000064",
"f	c #00007C",
"g	c #0000E0",
"h	c #0000FC",
"i	c #0000D4",
"j	c #202020",
"k	c #000070",
"l	c #000058",
"m	c #707070",
"n	c #8C8C8C",
"o	c #4C4C4C",
"p	c #383838",
"q	c #303030",
"r	c #646464",
"s	c #00A8A8",
"t	c #009C9C",
"u	c #008C8C",
"v	c #008484",
"w	c #005858",
"x	c #007C7C",
"y	c #007474",
"z	c #004040",
"A	c #20B4B4",
"B	c #404040",
"C	c #007070",
"D	c #48C0C0",
"E	c #00001C",
"F	c #FCFCFC",
"G	c #9CDCDC",
"H	c #7CFCF8",
"I	c #343434",
"J	c #20FCFC",
"K	c #00E4E4",
"L	c #00B4B4",
"M	c #00CCCC",
"N	c #74C8C8",
"O	c #28200C",
"                         .......+++++@@@                        ",
"                         .......+++++@@@                        ",
"                         ..###..+++##$@@                        ",
"                         %&#$$$$$$$$$$&%                        ",
"                         %#####$$$###$$%                        ",
"                         *#=-;>###>;-=$*                        ",
"                        =*#,')!~>{!'),$*]                       ",
"                        =&#^//##(_~///$&]                       ",
"                        :<#^[[/>>{#}}#$<|                       ",
"                        =1(~(/######$1>=]                       ",
"                        21(~(#>===>#$=>=2                       ",
"                       221(~(#$$$$$#$=>=22                      ",
"                       222(#(#(###(#$1=222                      ",
"               345657 822211###~>~##$=:2228  36590              ",
"            33333337abc2b2{>=;{]]]:::|-2b2bb373333333           ",
"          33d6333e77ffff2b{>>==>==;:::|b22fffa2a3339gh3         ",
"         3ih60003a2a33333j7a:;;~>_;::-a223333f72e0009hd43       ",
"        35g60003e27f0000000kea-:::--aa70000000a2ak3005gi33      ",
"       33300033e72a444444444ekeelaaaf444444444f72ek3000033      ",
"     i63300033ee77f44c444444444ekk444444444mn44a2eek305idi9     ",
"     6gg66443eee2a44444444444444kk4444444444444327eee7777e39k   ",
"       2222222222a00000000000000kk00000000000003222222222277    ",
"      22222222222aekkkkkkkkkkkk3kakkkkkkkkkkkkfa22222ak0i)5     ",
"     ekf33333ke222efkkemekkkkkk3kakkkkkkkobkkkee222aekaaaaeke   ",
"     777eeee77ke22eefk7p7kkkkkk3kakkkkkkkppkk3e222a777eekke77   ",
"     7eeekfeae7a222eekkkkkkkkkk3kakkkkkkkkkkfae22a77eeff39de    ",
"    88eeekfeae07222ee7777777777aaa77777777777e222a7eaekf39gc8   ",
"     eeeekfeae4a p2222222222222jjj22222222222222p 7fe7ef336b    ",
"    eeeekffeae4a qjjjjjjjjjjjjjoooqjjjjjjjjjjjjjj 74eaek3344b   ",
"   88eeekffeak0a  jjqpoqbbbbbbpbrrqobbbbboqoqjjj   ffe7e333fb8  ",
"    eestuttuvwf   qjjqoqpppppppbrrqpppppppqpqjjj   73eaae77777  ",
"    estxvtttuyz    qjqpjjjjjqqpbrrppqqjjjjqqjjj    jwyutuz66f2  ",
"    7suyvuutuyz    qppppppppooooooooopppppppppq   jqyuuuuAxf43e ",
"    ssxyvustuyzz   qppppBBBBBoooooooooBBBBBBBBq   jpyCCxxtAzae3 ",
"    stxyvustvwzz    jqqqqqqqqoooooooopqqqqqqqj   jjpCCCCxuDsa2a ",
"    stxyxusuxwzz  kffeekkk3f2jqqqqqqqj2afaaeekk  jjpCCCCCuDDza2 ",
"    stxyxusuxwzz kfe77777777ke2jjjj22fa7EE777aEk jjpCCCCCuADxaa ",
"    suyyxusuxzz  k77aeeeeeea7ae2222aaEE77aaee3kakFjqCCCCCxsDtaa ",
"    suyyxusuxzz e7eeaeeekkeeeaa3227E77aaaaaee34k7kjqCCCCCxsDsaa ",
"   ssuyyxusuxzz kkkeaeeekkeeeaaa22a777aaaaaeek39ekjjpCCCCCsDsa  ",
"   stxyyxutuwzz 7fkeaeeekkeeeaa7e2ka77aaaaaeekk4kkjjpCCCCCsDsz  ",
"   stxyyxutuwzz c7keaeeekkeeeaa7c88a77aaaaaeekk4k  jpCCCCysDsz  ",
"   ssCCCCCyxwzz bfkeaeeekkeeeaakb2ea77aaaaaeekk4k  jqCwwwwwCsz  ",
"   szjjjjjjqzz   fkeaeeekkeeeaa3a2ke77aaaaaeekk4k  jqqjjjjqqqz  ",
"   jjzjzCwjjjz   fkeaeeekkeeeaa3a2ke77aaaaaeekk4k  jjjjjztAzwq  ",
"   jzCzCsyjqjj  c7keaeffffeeeaakc88k77aaaaaeekk4k  jjqqqzAGvv   ",
"   jzCzyAyjqq   bkkk03kkkk393aa7b2ea7777aaaeekk4k   qqqqzAHvv   ",
"   qwCzxDwjqq   kkfeaeeeeeeee30f72e2E77af00000ekk   qqpjIsJuvv  ",
"   qwwztAwjpp   aEEfkkkkkkkkfE7a 7eff444fkkkkkf09    jpjIuKsvv  ",
"   qwwwAAzjpp   a2EaekkkkkkkaE22 777777777aeekkf3a   jpjqCKLvt  ",
"   qwzwDtzqpp   a7EaaeeeeeeeaE2e 727777kaaaekk3k77   jqqqwMMxL  ",
"   zCzCNuqqpp    222222222222222 7227777777777777    qqqqwsMxv  ",
"  jzwIwCwjqq     77e77777777ee77 72222E77777777E     qqqjBuLxvy ",
"  jjjqppqjpq     7777777aaaaaaa7 7222222222EEE7       qqjqwvwwy ",
"  jjj2ppj222      77aaeekf3fkee  722222222277         qIqj2oqjq ",
"   qp2jj2p2p      c7aaeekf3fe7c  72227222277          zjq2jjp2q ",
"    jjp2pj2j      b277eekf3kEeb  722277ekkkk           jj222jj  ",
"                   22222EEEEEe   72222222777                    ",
"                  eekkfffff7E2   7E22aaf000k                    ",
"                  ekeeeeee7EE22   722EE777ek                    ",
"                  efffff3300eE2e   7777777f                     ",
"                  eff66666664E2ebbbooooppppppppppppppppppooobbrr",
"                  eefggggggg4E2Oppqqqqqqqqqqqqqqqqqqqpppppobbrrr",
"                              rrrrrrrrrrrrrrrrrrrrrrrrrrrrrrr   "};
