/* XPM */
static char * enemy_03_xpm[] = {
"64 64 76 1",
" 	c #980088",
".	c #FCF400",
"+	c #CCC400",
"@	c #B4AC00",
"#	c #FCA470",
"$	c #F0945C",
"%	c #FC7800",
"&	c #FC9840",
"*	c #FC8820",
"=	c #B47044",
"-	c #5C4020",
";	c #A86840",
">	c #D08050",
",	c #FCCCB0",
"'	c #000098",
")	c #4040FC",
"!	c #7C0000",
"~	c #E88C58",
"{	c #A0643C",
"]	c #905C34",
"^	c #FCB890",
"/	c #FCB080",
"(	c #FC9C60",
"_	c #BC7848",
":	c #80502C",
"<	c #FCA85C",
"[	c #FCC4A4",
"}	c #FCBC9C",
"|	c #744C28",
"1	c #DC8854",
"2	c #000000",
"3	c #545454",
"4	c #303030",
"5	c #000088",
"6	c #0000A8",
"7	c #0000B0",
"8	c #DCDCDC",
"9	c #000070",
"0	c #00007C",
"a	c #000064",
"b	c #00004C",
"c	c #707070",
"d	c #000058",
"e	c #0000A4",
"f	c #000040",
"g	c #0000BC",
"h	c #0000D4",
"i	c #0000C8",
"j	c #0000EC",
"k	c #2024FC",
"l	c #0000E0",
"m	c #8C8C8C",
"n	c #4C4C4C",
"o	c #383838",
"p	c #00001C",
"q	c #202020",
"r	c #989898",
"s	c #343434",
"t	c #646464",
"u	c #004040",
"v	c #007474",
"w	c #00A8A8",
"x	c #008C8C",
"y	c #00CCCC",
"z	c #008484",
"A	c #005858",
"B	c #404040",
"C	c #20B4B4",
"D	c #009C9C",
"E	c #00B4B4",
"F	c #007C7C",
"G	c #007070",
"H	c #48C0C0",
"I	c #403018",
"J	c #0000FC",
"K	c #FCFCFC",
"                                                                ",
"                        .......+++++@@@                         ",
"                        .......+++++@@@                         ",
"                        ..###..+++##$@@                         ",
"                        %&#$$$$$$$$$$&%                         ",
"                        %#####$$$###$$%                         ",
"                        *#=-;>###>;-=$*                         ",
"                       =*#,')!~>{!'),$*]                        ",
"                       =&#^//##(_~///$&]                        ",
"                       :<#^[[/>>{#}}#$<|                        ",
"                       =1(~(/######$1>=]                        ",
"                       21(~(#>===>#$=>=2                        ",
"                      221(~(#$$$$$#$=>=22                       ",
"                      22{(#(#(###(#$1=222                       ",
"                      32-11###~>~##$=4222                       ",
"               56765 822-{>=;{]]]:::|2222 8 95660               ",
"             a0555ab5ca2d{>>==>==;:::22320ce2f6g7665            ",
"           a5hiee025550a9f:];;~>_;::-23225eee2aee6ij75          ",
"          5hkiee02955550d99a-|:::--bb22255eeeaf55e7ikh5         ",
"         5hjiee0b25555559ada9aadbbbbfa5eeeeeee2aee67ilga        ",
"       9a5ggee5a29558555555affffffaeeeeeeemmeeafeee66665        ",
"       56eeeee9b255555555555ebf95eeeeeeeeeeeee52aaaa996e5a      ",
"       99e6650a2b000000000000ba000000000000000b2222222222a      ",
"       222ffff22baaaan3aaaaaafae99999999n3999ab222fb000af       ",
"      aa222222222aaaaooaaaaaafae99999999oo99aa22b590055092      ",
"       aeb222aa22baaaaaaaaaaafae999999999999af2b0affffffa20     ",
"       fbaaabf2p22aaaaaaaaaaafae99999999959aa22afb55g0aaa2      ",
"       afffp22pp2q2ffffffffff222fffffffffffff2220055g6aaa8r     ",
"        aafffpfp22qq22222222qq4qq22222222222o22 6055g6aaa3      ",
"        f9aafffp22qsssssssssonnn44444444qqqqqqq 6055ggea02      ",
"         pppppp222qss333333nottt333333n4oo4qqq  6006ih6aa8r     ",
"        a22222ba222ssooooooootttooooooo4osqqq   590550aae3      ",
"         a0009af222qs4444444ottt4444qqqqosqqquuvwxvuuff2p2      ",
"         ff2222f222qsooooonnnnnnooooooooo4ssquvwywzvuu90f2      ",
"        vzzvAuuf22qq444BBn3tt3nnBBoossssqqqquuxCwvAAAuff90      ",
"       vDEzFvAuuf22qqqqqqqq4nnnBoo44qq222222uvxyDvuuAuaff9f     ",
"      vzzDzGGAuuf2bg6e5009aaqqqqqqq22222222uuxwHFAuuAuaffa      ",
"      vzzzzGAAuufg69aabbffpbaa22222bfbbffffuAxyCFuuAAuafaf      ",
"      vvvzzGuuuu6aa9005009af2bb222fp2222222uvxyDvuuAuu9fa       ",
"      vvvzzGuuuuaa905e5009aab2b22f22pbbbfffuxwHFAuuAuu25f       ",
"       vvvzGAuuua9955e5009aabfp222paabbbffuuxCCFuuAAuu~a        ",
"       vvAzGAuuua9055e5009aabf22fpfaabbbffu4444444Auu_,         ",
"       vvAvzGuuua9055e5009aabf2cfpfaabbbff4uvyEAu44uu_,         ",
"        vAAzvAu4aa055e5009aabf2r3pfaabbbff4uzyDAqu44u-~         ",
"        vAAA4444aa055e5009aabf223pfaabbbffuADEDAqAA4u::         ",
"          4444uuaa05ee5009aabf22fpfaabbbffuvEEzuovA4I           ",
"           Auuuuaa05ee5009aabf28fpfaabbbfuuDyDvqAvA4            ",
"           AAuuua96jJJJJJi6abf2rfpfaabbbfuADyzAqAvu             ",
"            Auuu6l70e509a95l7a22apfaabbbuuA44AoovAu             ",
"            AAu5a9g799aaa559f5922992pfbbu4qqqq2q4Au             ",
"             Aufa90099aaaabfffa2p22a5555q2uzA422qou             ",
"             AAppa0099aaaabapp2pf222a22222z22q2u44u             ",
"              Au222222222222222p3ff222222uu222u2A2              ",
"                bb995ee599aafffKpff22222222222qu22              ",
"                bbbaaafffpp222 2pf2222222Au2uA422q              ",
"                 a955e50aabbba 2pp222222f22222u2q               ",
"                 8955e50aabbc8 22fffff2222                      ",
"                 3955e50aabb0r 22pf22222222                     ",
"                  a9000apppfp  222faaaaf2222                    ",
"                  be66666660b2  p2f9aaaf2222nnnnnn333           ",
"                 ag000000000apttt33nnnooooooooooooooooonnn33ttt ",
"                 a0g666666a0ap3333nnooo444444444444444444on33tt ",
"                 ag6000999e0ap444ooooooooooooooooooooooooon3t   ",
"                 ag0055eee0aap44ooonn3t            ttt33non3t   "};
