/* XPM */
static char * enemy_01_xpm[] = {
"64 64 76 1",
" 	c #980088",
".	c #FCF400",
"+	c #CCC400",
"@	c #B4AC00",
"#	c #FCA470",
"$	c #F0945C",
"%	c #FC7800",
"&	c #FC9840",
"*	c #FC8820",
"=	c #B47044",
"-	c #5C4020",
";	c #A86840",
">	c #D08050",
",	c #FCCCB0",
"'	c #000098",
")	c #4040FC",
"!	c #7C0000",
"~	c #E88C58",
"{	c #A0643C",
"]	c #905C34",
"^	c #FCB890",
"/	c #FCB080",
"(	c #FC9C60",
"_	c #BC7848",
":	c #80502C",
"<	c #FCA85C",
"[	c #FCC4A4",
"}	c #FCBC9C",
"|	c #744C28",
"1	c #DC8854",
"2	c #000000",
"3	c #202020",
"4	c #00007C",
"5	c #0000A8",
"6	c #000088",
"7	c #000070",
"8	c #DCDCDC",
"9	c #989898",
"0	c #28200C",
"a	c #0000B0",
"b	c #000064",
"c	c #0000BC",
"d	c #000040",
"e	c #0000A4",
"f	c #707070",
"g	c #00004C",
"h	c #0000EC",
"i	c #0000C8",
"j	c #0000D4",
"k	c #2024FC",
"l	c #0000E0",
"m	c #8C8C8C",
"n	c #545454",
"o	c #4C4C4C",
"p	c #383838",
"q	c #00001C",
"r	c #303030",
"s	c #343434",
"t	c #646464",
"u	c #004040",
"v	c #007474",
"w	c #008C8C",
"x	c #00A8A8",
"y	c #008484",
"z	c #00CCCC",
"A	c #005858",
"B	c #20B4B4",
"C	c #404040",
"D	c #009C9C",
"E	c #007C7C",
"F	c #00B4B4",
"G	c #48C0C0",
"H	c #007070",
"I	c #403018",
"J	c #0000FC",
"K	c #FCFCFC",
"                                                                ",
"                                                                ",
"                         .......+++++@@@                        ",
"                         .......+++++@@@                        ",
"                         ..###..+++##$@@                        ",
"                         %&#$$$$$$$$$$&%                        ",
"                         %#####$$$###$$%                        ",
"                         *#=-;>###>;-=$*                        ",
"                        =*#,')!~>{!'),$*]                       ",
"                        =&#^//##(_~///$&]                       ",
"                        :<#^[[/>>{#}}#$<|                       ",
"                        =1(~(/#####/$1>=]                       ",
"                       231(~(/>===>#$=>=32                      ",
"                       231(~(#$$$$$#$=>=32                      ",
"                       232(#(#(###(#$1=332                      ",
"               45567 8922301###~>~##$=:2328 65a56               ",
"            6b5ac5d2ef42232{=;{]]]:::|-23bf6gb6664b             ",
"          6ahi5eeb2eee62232:>==>==;:::|3b466624eeij6b           ",
"         6jkiae66dbeee66222d:;;~>_;::-gb46666724eeikj6          ",
"        bclia5eeb2eeeeeee6bd23-:::--db666666662g4eeihj6         ",
"        65555eeedbeemmeeeeeeebgdddd6566666686672b6eecc6b7       ",
"      b6e577bbbb26eeeeeeeeeeeee67dge666666666662g7eeeee56       ",
"      b2222222222g444444444444444bg444444444444g2b4655e77       ",
"       db444gd222gb777no77777777ebdbbbbbbnobbbbg22dddd222       ",
"      274664476g22bb77pp77777777ebdbbbbbbppbbbb222222222bb      ",
"     42bddddddb4g2db777777777777ebdbbbbbbbbbbbg22bb222geb       ",
"      2bbb4c66gdb22bb76777777777ebdbbbbbbbbbbb22q2dgbbbgd       ",
"     98bbb5c6644222ddddddddddddd222dddddddddd232qq22qdddb       ",
"      nbbb5c6645 22p2222222222233r33222222223322qdqdddbb        ",
"      24becc6645 3333333rrrrrrrrooopsssssssss322qdddbb7d        ",
"     98bb5ji5445  333rppronnnnnntttponnnnnnss3222qqqqqq         ",
"      nebb466476   333sprppppppptttppppppppss222bg22222b        ",
"      2q2dduuvwxvuu333sp3333rrrrtttprrrrrrrs3222db7444b         ",
"      2d47uuvyxzxvu3ssrpppppppppooooooppppps3222d2222dd         ",
"      47dduAAAvxBwuu3333ssssppCCoonttnoCCrrr3322duuAvyyv        ",
"     d7ddbuAuuvDzwvu22222233rrppCooor3333333322duuAvEyFDv       ",
"      bddbuAuuAEGxwuu222222223333333bb7446e5cg2duuAHHyDyyv      ",
"      dbdbuAAuuEBzwAuddddggdg22222bbgqddggbb75cduuAAHyyyyv      ",
"       bd7uuAuuvDzwvu2222222qd222gg2db7446447bb5uuuuHyyvvv      ",
"       d62uuAuuAEGxwudddgggq22d22g2gbb7446e647bbuuuuHyyvvv      ",
"        b~uuAAuuEBBwuuddgggbbq222qdgbb7446e6677duuuAHyvvv       ",
"         ,_uuArrrrrrruddgggbbdqd22dgbb7446e6647buuuAHyAvv       ",
"         ,_uurruAFzvurddgggbbdqdf2dgbb7446e6647buuuHyvAvv       ",
"         ~-urru3ADzyurddgggbbdqn92dgbb7446e664bbruAvyAAv        ",
"         ::urAA3ADFDAuddgggbbdqn22dgbb7446e664bbrrrrAAAv        ",
"           IrAvpuyFFvuddgggbbdqd22dgbb7446ee64bbuurrrr          ",
"            rAvA3vDzDuudgggbbdqd82dgbb7446ee64bbuuuuA           ",
"             uvA3AyzDAudgggbbdqd92dgb5iJJJJJh57buuuAA           ",
"             uAvppArrAuugggbbdqb22bal67b746e4al5uuuA            ",
"             uAr323333ruggdq2772276d766bbb77ac7b6uAA            ",
"             up322rAyu236666b22q2bdddgbbbb77447bduA             ",
"             urru2322y22222b222dq2qqbgbbbb7744bqqAA             ",
"              2A2u222uu222222ddnq222222222222222uA              ",
"              22u322222222222ddqKdddbb776ee677gg                ",
"              322rAu2uA2222222dq2 222qqdddbbbggg                ",
"               32u22222d222222qq2 bgggbb46e667b                 ",
"                      2222ddddd22 8fggbb46e6678                 ",
"                     22222222dq22 94ggbb46e667n                 ",
"                    2222dbbbbd222  qdqqqb4447b                  ",
"                    2222dbbb7d2qoo2g45555555egoooooooooontt     ",
"               ttttttnnnoopprrrrrrqb444444444cbpppppppooonttt   ",
"                      ttooooooppprqb4b555555c4brrrrppooonnttt   ",
"                          nnnnooooqb4e7774445cbrrppoooonnttt    ",
"                               nnnqbb4eee6644cbppooooonntt      "};
