/* XPM */
static char * bricks_xpm[] = {
"32 32 9 1",
" 	c #B1624D",
".	c #C66851",
"+	c #9B5643",
"@	c #8B6E67",
"#	c #A2867D",
"$	c #8F503F",
"%	c #7C4536",
"&	c #733F31",
"*	c #A9948D",
" ..   +@..   .  ...   +#...     ",
"++++++$@%$++++++++++++$#%+++++++",
"++++++$#%$++++++++++++$#%+++++++",
"$++++$$#%$$+++++++++$$$#%$+++++$",
"$$$$$%&*%%$$$++++$$$$$&#%$$++$$$",
"&$$%%%&*&%%$$$$$$$$%%%%#&%$$$$%&",
"&&%%&&&*&&%$%%%$$%%%&&&#&%%$$%%&",
"@@@@##**##@@@@@@@@####**##@@@@@@",
"..  ...  ++ ..+#..  ..  ++ .. +@",
"%   ++++++++  %#%  +++++++++  %@",
"% ++++++++++$ %#%$+++++++++++$%#",
"%+++++++++$$$$%#%$$$+++++$$$$$%#",
"%$+++++$$$$$$%&*%%$$$$$$$$$$$%&#",
"%%$$++$$$$$$%%&*&%$$$$$$$$$%%%&#",
"%%%$$$%%%$%%%&&*&&%%$$%%$$%%%&&*",
"##@@@@@@@@####**####@@@@@@@@##**",
"  +   +#..   .. ++  ..+#.. ...  ",
" ++++ $#$  ++++++++   %#$  ++.. ",
"++++++$#$++++++++++++$%#$+++++++",
"++++++$#$$++++++++++$$%#$$++++++",
"$++++$$#$$$+++++++$$$$%*%$++++$$",
"$$++$%&#%$$$$++$$$$$$$%*%$$+$$$%",
"%$$%%%&#%%%%%$$$%%%$$%&*%%$$$%%%",
"@@####**##@@@@@@@@@@##**##@@@@@@",
"+  ..    ++   +@.  ..  +++    +#",
"% ..+++++++++ $@$ ..++++++++  %#",
"%$$+++++++++++$#$+++++++++++++%#",
"%%$$++++++++++$#$$++++++++++++%#",
"&%$$$$++++++$$$*$$$++++++++++%&*",
"&%%$$$$$$++$$$&*$$$$$$++++%%%%&*",
"&&%&&%%%%%&&&%&*&&%%%%&&&&%%%&&*",
"##@@@@@@@@@@##**####@@@@@@##****"};
