/* XPM */
static char * cobblestone_xpm[] = {
"32 32 6 1",
" 	c #616161",
".	c #6E6D6D",
"+	c #888788",
"@	c #A6A6A6",
"#	c #525252",
"$	c #B5B5B5",
" . .+@++ .. # ++$$@+.  +++@$@@+.",
". .@@$$+@ #  +$@$@@@@.  +@$$+@++",
". +$$$++++## $$$@+@@++.# +@+@+.+",
"..@@$@@+.+ #@$@$+@@++.. ##++..++",
" .@$++@@+.# $@+@++@@+. # ##.+++.",
"#.+@+@++..  @+++++++. # #   .+ .",
"# .++.+.#  #+@+..+.. ## .++.  . ",
" #  +. # ..  +..+..  .++@@++.# #",
"## .  .+@$@+. ++. ##+@@@+@@++ # ",
".  #.+@$@@$@+.#. # +@$@$@@+@+# .",
"@+. @$$@+@+++. ## +@++$@@+++. .+",
"$$@.++@$@++@...# #.++@$$@@++..+@",
"@$++.@++@@++++. # # .++@+++. .@@",
"$+@+  +@++++.+.# ... .@++..+. @$",
"+@+. #.+++..+.  .+@$$+ ...+. .+@",
"+++ .  ..++.. .++@$@+@+ .++.#...",
".+. +@@+   .  +@$@@+@+++ .  ##.+",
".. @$$+@+.. # .@+@+++++.   # # .",
"  @$$@@+..+. ..+@+.+. +. # +@@. ",
". $@+@++.+.+. ..+++   ..  +@@+@+",
"@+.@+.+.+++ . ## .++... #.@@$@$$",
"++ .++..+..  # ### ... #.+@$@$$@",
"@+. #   .  # +@$@+. # # +@@$$+@+",
"+. . # . #  +$$$$@+. ##.@+$$@@++",
"+ .+@$@+. #.$@$@@++@. # +@@+.+.+",
". +$$@+@+.#.@$@@++@++.   +++..++",
" .$$@@++.+  @@+@+.++.. .# ..++..",
" +$@$++.+.. +@@+.++.+... ## ... ",
"+@$@+@.++++. ++.++++... +@+.  # ",
"+@@@@+...+.+. ..++.... @@$@++. #",
" +@++. .+.++.. ....   +@$@$@++.#",
"# ++  . ..+..#   ... # +$$@+@++ "};
