/* XPM */
static char * grass_block_side_xpm[] = {
"32 32 13 1",
" 	c #5E9837",
".	c #62A039",
"+	c #538631",
"@	c #588E34",
"#	c #3E6723",
"$	c #4A782B",
"%	c #69A93E",
"&	c #593D29",
"*	c #79553A",
"=	c #966C4A",
"-	c #6C6C6C",
";	c #B9855C",
">	c #878787",
" .+@+@+@+#+@+$ @. @@+ @+@++$@ +%",
"+%.$@ .+@.@$ .@$+ .@ @+@$@@.+ @ ",
" @+$ .+ +@ $+ ++ +$. ++ $ $@.$+$",
"% $#% $@$+ &+$&$@$.+@ $ $$+$+ +&",
"+@#&$%#$+$&&@&& @+@$..$%& #$#$&*",
"#$&*&$& +$&*@&*&$@ $ +&@*&$#&#*=",
"&#-**&&&@#&*$*;*$ +&+#*&**#&*&*&",
"*->-;*=*#&&&*&=*&$#&$&=*=*&=*=&*",
";=-*=;;=*&*;*===*#&=**>-***=**==",
"*=*=*==;&*;==**==&*&*>--*;=**&**",
"**&==;=***==&*=*&*&*;&*&;=*&&*=;",
"=&&*;=*=*==&**&&&&*=**&**=****;;",
";;*&***=>>**=&*;;=***=;=*&&;&*=*",
"=;=***=->-=***;==;=*;;=;**;=*=*=",
"*=**;=;*-=;=&&*=;=*&=;*=&**=====",
"&*&*=;;=***&*==*==&**=;==**=;;*&",
"*=***==*&==*****&*=;===***&*=&**",
"===*&*==**;==**&***==***&*=&&**;",
";*=**&&**;=*&&**;==&**&&*=;;=*==",
"***=&&**&*=&&*&=*=**=***;;=**=*=",
"&*=;**=;=&&**=**&&&;;=*&==*=>>*&",
"*=*=*=;;;=;*;;=&&*;;=;&**==->-**",
"===*&&;==;==**=*>>*==**&&*&=-**&",
"=*****==*=*=&==->-==*;=*&&*=*&&*",
"*&&==*****;;=;**-***==&**;**;;;=",
"&*&&*=*;=*=;;*=**==**&*===&;==*;",
"**;==*&&==&*=&&=**&&;****&;=;==*",
"*==;**=**&***=***&&*=;*&&*;**===",
";=**&&*=&*=&&**=*;;;=*=*=*====*;",
"*=*&&*;;=*&*>&&*;=;=*&=;**&*=*==",
"=***;=;**=*->-***==&&**==*==*&&*",
"*;=*=;====&=-==*==*=**=*&&*==*&&"};
