/* XPM */
static char * wall_4_xpm[] = {
"32 32 12 1",
" 	c #B88432",
".	c #78652B",
"+	c #70592B",
"@	c #5E4522",
"#	c #36160A",
"$	c #BA9961",
"%	c #E5BD77",
"&	c #EBCB7A",
"*	c #825734",
"=	c #3D2C11",
"-	c #4D381C",
";	c #635424",
" ...........+.+++@+@@@@@@@@@@@@@",
".###############################",
".#$$$$$$$$$$$$$$$$$$$$$$$$$$$$$$",
".#%%%%%%%%%%%%%%%%%%%%%%%%%%%%%%",
".#%%%%%%%%%%%%%%%%%%%%%%%%%%%%%%",
"..++++......................+++.",
".###############################",
".#$$$$$$$$$$$$$$$$$$$$$$$$$$$$$$",
".#%%%%%%%%%%%%%%%%%%%%%%%%%%%%%%",
".#%&%&%&%&%&%&%&%&%&%&%&%&%&%&%&",
".#&%&%&%&%&%&%&%&%&%&%&%&%&%&%&%",
"+#%&&&%&&&%&&&%&&&%&&&%&&&%&&&%&",
".#&&%&&&%&&&%&&&%&&&%&&&%&&&%&&&",
"+#&&&&&&&&&&&&&&&&&&&&&&&&&&&&&&",
"+#&&&&&&&&&&&&&&&&&&&&&&&&&&&&&&",
"@#&&&&&&&&&&&&&&&&&&&&&&&&&&&&&&",
"@#&&&&&&&&&&&&&&&&&&&&&&&&&&&&&&",
"@#%%%%%%%%%%%%%%%%%%%%%%%%%%%%%%",
"@#$$$$$$$$$$$$$$$$$$$$$$$$$$$$$$",
"@*******************************",
"@@@@@@@@@@@@@@@@@@@@@@@@@@@@@@@@",
"@@@@@@@@@@@@@@@@@@@@@@@@@@@@@@@@",
"@###############################",
"@=--===----===----===----===----",
"@-@@-=;-@@--=;-@@--=@-@@--=;-@@@",
"@-@@-=.@@@@-=.@@@@-=.@@@@-=.@@@@",
"@-@@-=.@@@@-=.@@@@--.@@@@-=.@@@@",
"@-@@--.@@@@--.@@@@-=.@@@@--.@@@@",
"@-@@-=;@@@@-=;@@@@--;@@@@-=;@@@@",
"@*******************************",
"@@@@@@@@@@@@@@@@@@@@@@@@@@@@@@@@",
"@@@@@@@@@@@@@@@@@@@@@@@@@@@@@@@@"};
