/* XPM */
static char * wall_3_xpm[] = {
"32 32 9 1",
" 	c #3B2717",
".	c #602F06",
"+	c #693A17",
"@	c #78441A",
"#	c #522710",
"$	c #694B2E",
"%	c #8F4C1F",
"&	c #966A23",
"*	c #87581E",
" ..++@@@@@@@@@@@@@@@@@@@@@@++.. ",
"+                              +",
". ########################.#..$.",
". ++++@. +++++@. +++++@. +++++$.",
". @+@+%. +@+@+%. +@+@+%. +@+@+$.",
". ++@+%. +++@+%. +++@+%. +++@+$.",
". @+++&. +@+++&. +@+++&. +@+++$.",
". ++@+%. +@+@+%. +@+@+%. +@+@+$.",
". @***&. @****&. @****&. @****$.",
". #...&. .....&. .....&. .....$.",
". ++++&. +++++&. +++++&. +++++$.",
". @+@+&. +@+@+&. +@+@+&. +@+@+$.",
". ++@+&. +++@+&. +++@+&. +++@+$.",
". @+++&. +@+++&. +@+++&. +@+++$.",
". ++@+&. +@+@+&. +@+@+&. +@+@+$.",
". @***&. @****&. @****&. @****$.",
". #...&. .....&. .....&. .....$.",
". ++++&. +++++&. +++++&. +++++$.",
". @+@+&. +@+@+&. +@+@+&. +@+@+$.",
". ++@+&. +++@+&. +++@+&. +++@+$.",
". @+++&. +@+++&. +@+++&. +@+++$.",
". ++@+&. +@+@+&. +@+@+&. +@+@+$.",
". @***&. @****&. @****&. *****$.",
". #...%. .....%. .....%. .....$.",
". ++++&. +++++&. +++++&. +++++$.",
". @+@+%. +@+@+%. +@+@+%. +@+@+$.",
". ++@+%. +++@+%. +++@+%. +++@+$.",
". @+++%. +@+++%. +@+++%. +@+++$.",
". @+@+@. +@+@+@. +@+@+@. +@+@+$.",
". ++++%. +++++%. +++++%. +++++$.",
". $$$$$$$$$$$$$$$$$$$$$$$$$$$$ .",
" +............................+ "};
