/* XPM */
static char * gun_03_xpm[] = {
"64 64 59 1",
" 	c #980088",
".	c #580000",
"+	c #880000",
"@	c #B00000",
"#	c #E00000",
"$	c #FC4040",
"%	c #EC0000",
"&	c #FC9C9C",
"*	c #FC0000",
"=	c #FCE8DC",
"-	c #7C7C7C",
";	c #FCFC54",
">	c #8C8C8C",
",	c #D0D0D0",
"'	c #A8A8A8",
")	c #B4B4B4",
"!	c #4C4C4C",
"~	c #2C2C2C",
"{	c #989898",
"]	c #646464",
"^	c #545454",
"/	c #848400",
"(	c #707070",
"_	c #202020",
":	c #000000",
"<	c #FCD4BC",
"[	c #FCD8C4",
"}	c #FCA470",
"|	c #543C1C",
"1	c #C87C4C",
"2	c #DC8854",
"3	c #483818",
"4	c #905C34",
"5	c #744C28",
"6	c #1C1C1C",
"7	c #BC7848",
"8	c #FCB080",
"9	c #FCCCB0",
"0	c #FCBC9C",
"a	c #FCC4A4",
"b	c #343434",
"c	c #383838",
"d	c #80502C",
"e	c #B47044",
"f	c #D08050",
"g	c #FCB890",
"h	c #FCE0D0",
"i	c #484848",
"j	c #885830",
"k	c #282828",
"l	c #00001C",
"m	c #F0945C",
"n	c #A86840",
"o	c #ECECEC",
"p	c #DCDCDC",
"q	c #FCA85C",
"r	c #5C4020",
"s	c #C0C0C0",
"t	c #5C5C5C",
"                                                                ",
"                                                                ",
"                                                                ",
"                                                                ",
"                                                                ",
"                                                                ",
"                                                                ",
"                                                                ",
"                                                                ",
"                                                                ",
"                                                                ",
"                                                                ",
"                                                                ",
"                                                                ",
"                                                                ",
"                                                                ",
"                                                                ",
"                                                                ",
"                                                                ",
"                                                                ",
"                                                                ",
"                                                                ",
"                                                                ",
"                                                                ",
"                                                                ",
"                                                                ",
"                               .                                ",
"                               +                                ",
"                               @                                ",
"                               #                                ",
"                               $                                ",
"                              %&%                               ",
"                             *&=&*                              ",
"                           %%&=-=&%%                            ",
"                         +%&&;>,>;&&%+                          ",
"                     .+@#$==;'),)';==$#@+.                      ",
"                        +@&;&-),)-&;&@+                         ",
"                          %& !),)! &%                           ",
"                            --!-!--                             ",
"                           ~-{~~~]-^   ;/                       ",
"                           ~-'(-(]-! _;/                        ",
"                           ~-'{{{]-~  -                         ",
"                           ~!{'''!!:                            ",
"                           ~_-!!!:_:<                           ",
"                           ~_]~~~:_:<                           ",
"                          [}_]~~~:_|<<                          ",
"                          }[}]:::__<<<                          ",
"                          12[<<<<<<<<<<                         ",
"                         23422}}<<<<}=<                         ",
"                         563478}}}}}}9=<                        ",
"                         366342}8}}}}0a=                        ",
"                         b6~ccdef88}}}0gh                       ",
"                         {6i6bbcj228}}00g=                      ",
"                           ~_b~ikj478ga00}<                     ",
"                           c>_:-lcddm8aagm}=                    ",
"                            {!(e3!4d4n7,oooopo                  ",
"                             )eq}eejr5,,''''',,                 ",
"                                   f>')ssssss)so                ",
"                                   '>>)sssssss'o                ",
"                                  >!^>>sssssssspp               ",
"                                  >~!(-{ssssss,sop              ",
"                                  -6!](>'s'>]!!!bs,             ",
"                                  -:!t]((ttt-{>>>]'             ",
"                                  -:6!tt^]>'{{{')>(             "};
