/* XPM */
static char * gun_04_xpm[] = {
"64 64 39 1",
" 	c #980088",
".	c #7C7C7C",
"+	c #646464",
"@	c #2C2C2C",
"#	c #4C4C4C",
"$	c #8C8C8C",
"%	c #FCFC54",
"&	c #848400",
"*	c #585400",
"=	c #B4AC00",
"-	c #383838",
";	c #545454",
">	c #DC8854",
",	c #202020",
"'	c #000000",
")	c #C87C4C",
"!	c #FCB080",
"~	c #FCC4A4",
"{	c #FCCCB0",
"]	c #FCFCFC",
"^	c #A86840",
"/	c #F0945C",
"(	c #FCE0D0",
"_	c #FCA470",
":	c #FCBC9C",
"<	c #FCD8C4",
"[	c #FCB890",
"}	c #C0C0C0",
"|	c #B4B4B4",
"1	c #A8A8A8",
"2	c #D08050",
"3	c #707070",
"4	c #989898",
"5	c #5C5C5C",
"6	c #ECECEC",
"7	c #343434",
"8	c #1C1C1C",
"9	c #DCDCDC",
"0	c #D0D0D0",
"                                                                ",
"                                                                ",
"                                                                ",
"                                                                ",
"                                                                ",
"                                                                ",
"                                                                ",
"                                                                ",
"                                                                ",
"                                                                ",
"                                                                ",
"                                                                ",
"                                                                ",
"                                                                ",
"                                                                ",
"                                                                ",
"                                                                ",
"                                                                ",
"                                                                ",
"                                                                ",
"                                                                ",
"                                                                ",
"                                                                ",
"                               .+@+.                            ",
"                               #+#+#                            ",
"                               #+#+#                            ",
"                               #+++#                            ",
"                               #.+.#                            ",
"                               #.$.#                            ",
"                               #.$.#                            ",
"                               #.$.#                            ",
"                              @#.$.#@                           ",
"                              @#.$.#@                           ",
"                             @+#...#+@          %&              ",
"                             ++.+##+.+         *&%=             ",
"                            @++##++##+@        -*=%&            ",
"                            @;###+#+#;@         -&>*            ",
"                            @;###+#+##@          *,             ",
"                            @;###+#+#-@                         ",
"                            @;##$##$#@@                         ",
"                            @;#######'@)                        ",
"                            @;$@$$$$$'@!)                       ",
"                          >~@@;@@@@#,''{~                       ",
"                         >~])@@#''@'''+{{)                      ",
"                         >~~)^@@+'@,'+/!(~                      ",
"                         >~(~)^@++++)!~~~_                      ",
"                         >>~]())_:::_~~~~!                      ",
"                          >>((]]]((((~~~_>                      ",
"                           >_~:((<((~_~__>                      ",
"                           >>_[~:::(:__>>>                      ",
"                            >>__~[{~~_>>>>                      ",
"                            >>>_/_(]]]]]](}                     ",
"                             >>>}}}||111111                     ",
"                              2};3$$41|}}11}                    ",
"                              };;3...1}}4...}                   ",
"                              ;;;53..4$+;;;$]                   ",
"                              ;###;##.|4$41.;6                  ",
"                              #'7#,83}@;9|5-7.]                 ",
"                              ##8,'$1,#9}-@@8'5}                ",
"                              # #85-,405,-+.064$|               ",
"                                78#3}0;,-+.00$58}               ",
"                                ,@194@8#3.9.;7,899              ",
"                                8#91;,8#3.$+;#@,560             ",
"                                ,#$}$-,-;3.40]]]]]]}            "};
