/* XPM */
static char * gun_05_xpm[] = {
"64 64 27 1",
" 	c #980088",
".	c #000000",
"+	c #545454",
"@	c #707070",
"#	c #4C4C4C",
"$	c #7C7C7C",
"%	c #A8A8A8",
"&	c #2C2C2C",
"*	c #989898",
"=	c #646464",
"-	c #484848",
";	c #202020",
">	c #FCA470",
",	c #FCC4A4",
"'	c #905C34",
")	c #FCB080",
"!	c #D08050",
"~	c #543C1C",
"{	c #DC8854",
"]	c #FCB890",
"^	c #383838",
"/	c #885830",
"(	c #BC7848",
"_	c #848400",
":	c #585400",
"<	c #B4AC00",
"[	c #FCFC54",
"                                                                ",
"                                                                ",
"                                                                ",
"                                                                ",
"                                                                ",
"                                                                ",
"                                                                ",
"                                                                ",
"                                                                ",
"                                                                ",
"                                                                ",
"                                                                ",
"                                                                ",
"                                                                ",
"                                                                ",
"                                                                ",
"                                                                ",
"                                                                ",
"                                                                ",
"                                                                ",
"                                                                ",
"                                                                ",
"                                                                ",
"                                                                ",
"                                                                ",
"                                                                ",
"                                                                ",
"                                                                ",
"                                                                ",
"                                                                ",
"                                                                ",
"                                                                ",
"                                                                ",
"                                                                ",
"                                                                ",
"                                                                ",
"                                                                ",
"                                                                ",
"                                                                ",
"                                                                ",
"                                                                ",
"                                                                ",
"                                                                ",
"                                                                ",
"                                .                               ",
"                               +@+                              ",
"                              #$%$#                             ",
"                              #$%$#                             ",
"                             $$#$#$$                            ",
"                            &$*&&&=$+                           ",
"                            &$%@$@=$#                           ",
"                            &$%***=$&                           ",
"                            &-*%%%##.                           ",
"                            &;$--#.;.>,,                        ",
"                           >.;=&&&.;.'>,)                       ",
"                          !>.;=&&&.;~'{],,                ^     ",
"                         /((~.....;~'{]],,)              _:;    ",
"                        !!]{(/~~~~~({{>,,,]             _<[;;   ",
"                       !!>],,{{{{{{{)),,,,)            _<[<:;^  ",
"                       !!>],,,]]]),,,,,,,,)           _<[<_::   ",
"                       !!!>>],,,,,,,,,,,,]>]         _<[<_:^    ",
"                       ''(!>>],,,,,,,,,,,>]]]       ^^_<_:^     ",
"                        !'(!>>>],,,,,,,,]]],,        ^^::^      ",
"                        '('(!>>>),,,,,,]]]]]]         ^^^       "};
