/* XPM */
static char * gun_02_xpm[] = {
"64 64 49 1",
" 	c #980088",
".	c #000000",
"+	c #545454",
"@	c #7C7C7C",
"#	c #8C8C8C",
"$	c #D0D0D0",
"%	c #A8A8A8",
"&	c #2C2C2C",
"*	c #989898",
"=	c #646464",
"-	c #707070",
";	c #4C4C4C",
">	c #202020",
",	c #FCA470",
"'	c #FCD4BC",
")	c #FCD8C4",
"!	c #543C1C",
"~	c #C87C4C",
"{	c #DC8854",
"]	c #483818",
"^	c #905C34",
"/	c #FCE8DC",
"(	c #744C28",
"_	c #1C1C1C",
":	c #BC7848",
"<	c #FCB080",
"[	c #FCCCB0",
"}	c #FCBC9C",
"|	c #FCC4A4",
"1	c #343434",
"2	c #383838",
"3	c #80502C",
"4	c #B47044",
"5	c #D08050",
"6	c #FCB890",
"7	c #FCE0D0",
"8	c #484848",
"9	c #885830",
"0	c #282828",
"a	c #00001C",
"b	c #F0945C",
"c	c #A86840",
"d	c #ECECEC",
"e	c #DCDCDC",
"f	c #B4B4B4",
"g	c #FCA85C",
"h	c #5C4020",
"i	c #C0C0C0",
"j	c #5C5C5C",
"                                                                ",
"                                                                ",
"                                                                ",
"                                                                ",
"                                                                ",
"                                                                ",
"                                                                ",
"                                                                ",
"                                                                ",
"                                                                ",
"                                                                ",
"                                                                ",
"                                                                ",
"                                                                ",
"                                                                ",
"                                                                ",
"                                                                ",
"                                                                ",
"                                                                ",
"                                                                ",
"                                                                ",
"                                                                ",
"                                                                ",
"                                                                ",
"                                                                ",
"                                                                ",
"                                                                ",
"                                                                ",
"                                                                ",
"                                                                ",
"                                                                ",
"                                                                ",
"                                                                ",
"                                                                ",
"                               .                                ",
"                              +@+                               ",
"                             +#$#+                              ",
"                             +@%@+                              ",
"                            @@.@.@@                             ",
"                           &@*&&&=@+                            ",
"                           &@%-@-=@;                            ",
"                           &@%***=@&                            ",
"                           &;*%%%;;.                            ",
"                           &>@;;;.>.,                           ",
"                           &>=&&&.>.'                           ",
"                          ),>=&&&.>!''                          ",
"                          ,),=...>>'''                          ",
"                          ~{)''''''''''                         ",
"                         {]^{{,,'''',/'                         ",
"                         (_]^:<,,,,,,[/'                        ",
"                         ]__]^{,<,,,,}|/                        ",
"                         1_&22345<<,,,}67                       ",
"                         *_8_1129{{<,,}}6/                      ",
"                           &>1&809^:<6|}},'                     ",
"                           2#>.@a233b<||6b,/                    ",
"                            *;-4];^3^c:$dddded                  ",
"                             f4g,449h($$%%%%%$$                 ",
"                                   5#%fiiiiiifid                ",
"                                   %##fiiiiiii%d                ",
"                                  #;+##iiiiiiiiee               ",
"                                  #&;-@*iiiiii$ide              ",
"                                  @_;=-#%i%#=;;;1i$             ",
"                                  @.;j=--jjj@*###=%             ",
"                                  @._;jj+=#%***%f#-             "};
