/* XPM */
static char *f3b386efaa9e42068b100e22ce2ee738Rkw1EkZtnsCeEsmK[] = {
/* columns rows colors chars-per-pixel */
"57 62 84 1 ",
"  c black",
". c #070707",
"X c #0B0B0B",
"o c #170F07",
"O c #0F1700",
"+ c #0B1707",
"@ c #171F07",
"# c #1F170B",
"$ c #131313",
"% c #1B1B1B",
"& c #13230B",
"* c #2B230F",
"= c #232B0F",
"- c #332B13",
"; c #3F2F17",
": c #3F2B1B",
"> c #2F371F",
", c #232323",
"< c #272727",
"1 c #2F2F2F",
"2 c #373F27",
"3 c #373737",
"4 c gray23",
"5 c #43331B",
"6 c #4B371B",
"7 c #533F1F",
"8 c #473323",
"9 c #4F3B23",
"0 c #4F3B2B",
"q c #533F2F",
"w c #3F472B",
"e c #5F4323",
"r c #5B472B",
"t c #474F33",
"y c #574333",
"u c #5F4B37",
"i c #53573B",
"p c #6B4727",
"a c #774F2B",
"s c #7F532F",
"d c #434343",
"f c gray28",
"g c #4B4B4B",
"h c gray31",
"j c gray34",
"k c #5B5B5B",
"l c #5B6347",
"z c #676B4F",
"x c #6F7357",
"c c gray39",
"v c gray42",
"b c #6F6F6F",
"n c #7B7F63",
"m c #777777",
"M c gray50",
"N c #875733",
"B c #8F5F37",
"V c #9B633B",
"C c #A36B3F",
"Z c #AB6F43",
"A c #B37347",
"S c #BF7B4B",
"D c #CB7F4F",
"F c #CF8353",
"G c #D78B5B",
"H c #DF9363",
"J c #E79B6B",
"K c #EFA373",
"L c #F7AB7B",
"P c cyan",
"I c #838383",
"U c #939393",
"Y c #979797",
"T c #9F9F9F",
"R c #A7A7A7",
"E c gray67",
"W c gray70",
"Q c #B7B7B7",
"! c #FFB383",
"~ c #FFBF9B",
"^ c gray78",
"/ c #CBCBCB",
"( c LightGray",
") c gray86",
/* pixels */
"PPPPPPPPPPPPPPPPPPPPPPPPPPPPPPPPPI3PPPPPPPPPPPPPPPPPPPPPP",
"PPPPPPPPPPPPPPPPPPPPPPPPPPPPPPPPP3 PPPPPPPPPPPPPPPPPPPPPP",
"PPPPPPPPPPPPPPPPPPPPPPPPPPPPPPP=9$$XXPPPPPPPPPPPPPPPPPPPP",
"PPPPPPPPPPPPPPPPPPPPPPPPPPPPPX0mh@$,==%PPPPPPPPPPPPPPPPPP",
"PPPPPPPPPPPPPPPPPPPPPPPPPPPPXdcUc=$,w2=%PPPPPPPPPPPPPPPPP",
"PPPPPPPPPPPPPPPPPPPPPPPPPPPP3d;@$$$%@==@PPPPPPPPPPPPPPPPP",
"PPPPPPPPPPPPPPPPPPPPPPPPPPPXd<X     $O@=%PPPPPPPPPPPPPPPP",
"PPPPPPPPPPPPPPPPPPPPPPPPPPP<3X@<13<,$ $@@PPPPPPPPPPPPPPPP",
"PPPPPPPPPPPPPPPPPPPPPPPPPP 11,42d4<%==  @%PPPPPPPPPPPPPPP",
"PPPPPPPPPPPPPPPPPPPPPPPPP%,3@2bikf1<=>=O &%PPPPPPPPPPPPPP",
"PPPPPPPPPPPPPPPPPPPPPPPPP 1,>tUxjf31=>2= &%PPPPPPPPPPPPPP",
"PPPPPPPPPPPPPPPPPPPPPPPP%=3%flWnkg33=>w=O &%PPPPPPPPPPPPP",
"PPPPPPPPPPPPPPPPPPPPPPPP@:<=hzYQqg<My=w=O &,PPPPPPPPPPPPP",
"PPPPPPPPPPPPPPPPPPPPPPP @4%3hnb  4<  =>=OO &%PPPPPPPPPPPP",
"PPPPPPPPPPPPPPPPPPPPPPP@4%<3mk,       2>=3,%,PPPPPPPPPPPP",
"PPPPPPPPPPPPPPPPPPPPPP=1=4<vUMkd551,%=>>=>4$% PPPPPPPPPPP",
"PPPPPPPPPPPPPPPPPPPPPP1<q2%m/RTWvf4,,==>=>g=$ PPPPPPPPPPP",
"PPPPPPPPPPPPPPPPPPPP3kb)R2%kIYUbh3<%%%%==>k4$ PPPPPPPPPPP",
"PPPPPPPPPPPPPPPPPPP3:80>084IW/YMj41<<% %1dc<Tc3PPPPPPPPPP",
"PPPPPPPPPPPPPPPPPPPq $$1$%hU)Yd         %4h,<1%wPPPPPPPPP",
"PPPPPPPPPPPPPPPPPPPP$$dYd,hU/dQliw2>=@O  <4%,%%>PPPPPPPPP",
"PPPPPPPPPPPPPPPPPPPP<<1v,3dYW xw2>=@O%,  X=<$ %=PPPPPPPPP",
"PPPPPPPPPPPPPPPPPPP<d3$d3<3IW l=@O%   %  X@=%$%@PPPPPPPPP",
"PPPPPPPPPPPPPPPPPPPPP$  f,gkm%3       .   OX>  PPPPPPPPPP",
"PPPPPPPPPPPPPPPPPPPPP0$$d1jcc1            @ w  PPPPPPPPPP",
"PPPPPPPPPPPPPPPPPPPPP,3<3,Ymj1           O= 2  PPPPPPPPPP",
"PPPPPPPPPPPPPPPPPPPPB:$%<$^Tmkd331*      @>$>  PPPPPPPPPP",
"PPPPPPPPPPPPPPPPPPPB,<k14$(Ij41<,@      O=2 =  PPPPPPPPPP",
"PPPPPPPPPPPPPPPPPBBB1:$%goEvd3<,O      O@=> @   PPPPPPPPP",
"PPPPPPPPPPPPPPPPBVBp,fMf3$fjh41<,++ O@@@=>, @   PPPPPPPPP",
"PPPPPPPPPPPPPPPBVZVp;%<31o;kvhuy5-$@@===>=% O   3PPPPPPPP",
"PPPPPPPPPPPPPPBVZZSNe %1,1o,9fbjhh443;-=O$X     3PPPPPPPP",
"PPPPPPPPPPPPpBZZZZSANa$ ,d31%                %  1PPPPPPPP",
"PPPPPPPPPPaNBZCCCCFSCae$$<kgv$$, %%        X*67ppp66;PPPP",
"PPPPPPPPPpNBCCZCCCDHSCae$,1cY,fY$43 .    XX*7sBBssspp7PPP",
"PPPPPPPPpBBNCZZCVCAFHHDBBe$*c 3h f,     X*paVZZVBBssBs;PP",
"PPPPPPPPpBBVZZAZVCCSFJJJDBBe;;;-%    oo;7pAHJHGFFSABVZp;P",
"PPPPPPPPpBBACCAZZVCZZGHJJJDZVaee;****;7VAH~~!KJHGFSVBVa;P",
"PPPPPPPPpaVAZCCAAZVCCSFFGHHFFFFAVNBCZDGKLL!~~!JHFSZVpsN;P",
"PPPPPPPP6aVACCCCSAAVVVZZDFGFAAAVNBCZGJJHHKL!~~JFAZVp77N;P",
"PPPPPPPe6aNCCVCCASSAAVBBZZSAZZVVVZDGGDDDGHJK!~JSACBe;-pp;",
"PPPPPPNs6paNVVBBVCAASFSZBsVVVVZADAASDSSFFSGHJJSACVspo*;e;",
"PPPPPpZa;eaaNBBBBVCASSCCBVVSSSSAASSFFDAZSSFGHFACVBsroo%6;",
"PPPPPpB7-6epassNBBBCCCCVVZSZZZZSSGJKJHDSZZFGFSZVVNa6oo 6;",
"PPPPPpa6-6eepasNNBBVVNVZZZAAAZZFGJKLKJFSCZSFDSCBBNr5o;;%P",
"PPPPPp7**-6peepassNNNNVVZZCAAVZVASFGHJFZBZADSACBsar5o%%PP",
"PPPPPP;#*-espeepaaNNBBBVAAZZSFFZZVVASFFVNBASAAVNsrr*oPPPP",
"PPPPPP*o*;eBssaappBBACBCZCCVZZZFFSSVVZABsNAAACVsr65**PPPP",
"PPPPPP**-5aZVNssNCACBAAFFJHGAVVZZFFZZVBaeaAAZVsp75*o*PPPP",
"PPPPPP*;67VSZZZBNAAAZZZZVVVCFFGFANNACBp;;pCCBNp5*o *PPPPP",
"PPPPPP*;77ZSACBNVAGGHJKJHGFAVVASFFNsBCN66pNNpe6;*. PPPPPP",
"PPPPPPP;6pACVBNAFHJFZVsVZFHKHFAVAFANaNBe6pape65*o .PPPPPP",
"PPPPPPP;6pCVaVFJJFBNNappsNCZZSFFABCC66ps7rre6;*o  PPPPPPP",
"PPPPPPP;7ppaNDFZBNNVZZVVVNNNNNaNVZZVB6-7p;6;**o. #PPPPPPP",
"PPPPPPP7peaNZCBNZFJ!!JFFFSAZVBaaaNVVss6#;6;*oo.. oPPPPPPP",
"PPPPPPP7eBBZSSFHH!!JFCCNNNNVZZZVapepNBs;#;6*o. #  PPPPPPP",
"PPPPPP67VAVBVVVBZFH!!JHHApepNVZZZVae5esp;.-*  $o  PPPPPPP",
"PPPPeeVAAVNpeeeeeeppBCCFHJDNp7NNVZVpe*ep7*.  $.  PPPPPPPP",
"Pe--;6NNNNNNNVZFJLKHGAVB6paBZDCNpsVABe-;;;oo    PPPPPPPPP",
"e***;;7777eeeeepNAFJLLFAAV66pBGDCpCSZp6 **   $#PPPPPPPPPP",
"-***;pZZBNNBBssape;eZGFFDDAV6pBDGZCGDa7*       PPPPPPPPPP",
"**;;NaFJFVAAGFZBaape;;aZFFGDAp6pVGGGZa7*       PPPPPPPPPP"
};
