/* XPM */
static char * oak_planks_xpm[] = {
"32 32 7 1",
" 	c #B8945F",
".	c #C29D62",
"+	c #967441",
"@	c #AF8F55",
"#	c #9F844D",
"$	c #7E6237",
"%	c #67502C",
" .   ............  ......... . +",
" @@@@@@@#+##@  @ @###@   @   @##",
"   @###++##@@##@@   @#####@@###+",
" @##@@@#+++##@    @@@@@@@     @#",
"@     @@@  @##@@@###@  @@###@  +",
"   @####@@##@   @@@@#+++#@@  @#+",
"###@@@@###@@@@####+++#@@@@###@@+",
"$++$+$$+++$$%%%%%%$%%%$$%%%%$%%%",
"  . ##@ ......@+ . .... @ @#### ",
"@##@   @@@ @#### @@   @##@   @@@",
" @@## @##@@   @#@  @@##@   @@@  ",
"#@     @#####@#+####@@  @     @#",
"####@@#  @@ @@@+@@   @@@@@###@@@",
"#@@@##@@###@  @+   @#+##@@@@@###",
"###@@  @@@@####+##@  @@@########",
"%%%$+$$+++$%$%%%%%%%$$$+$+++$$%%",
" .. ...  @@ ..   ......  . .. @+",
". @@    @###@@@###@   @@#  @@###",
" @####@    @####++##@###@@##@@#+",
"   @ @## @@  @@##@   @@##@@@###+",
". @@###@@#####@@@@#@@   @###@@@#",
"##@     @@##+++###@@ @##++@   ##",
" @ @##@######@@@@@@###@######@#+",
"%%%$$$++++$%%%%%$%%$++$+$$$%%%%%",
" @## ..... .  @+ .... #@..  . ..",
"@  @@  @@@######@@   @@##@ @@###",
"##@@@@   ##@@@@+###@@ @ @@####@@",
" @@@  @##@@@##@##@  @##@   @#@  ",
"@###@@@@@   @@##@@@   @###+++#@@",
"@@#++##@  @####+   @@@@@#+##@@##",
"######@##@  @##+@   @##########+",
"%$$$$%%%%%%$++$$+++$%%%$%%%%%%%%"};
