/* XPM */
static char * T_2_xpm[] = {
"32 32 3 1",
" 	c #C0CBDC",
".	c #3A4466",
"+	c #8B9BB4",
" .  . +++++++  ..  +++ ..  +++++",
"+ ... ++++++  .  . ++ .  .  ++++",
"++ .. +++++  .    .  .    .  +++",
"+++ . ++++  .  ++  ..  ++  .  ++",
"+++ . +++  .  ++++ .  ++++  .  +",
"+++ . ++  .  +++++ . ++++++  .  ",
"    ..   .  ++++++ .  ++++++ .. ",
"   ......   ++++++ ..  +++++ ...",
".....    .  +++++  ...  +++  .  ",
" ...  ++  .  +++  .   .     .   ",
"  .  ++++  .     .     .   .  ++",
"+ . ++++++  .   .  +++  ...  +++",
"+ . +++++++ ....  +++++  .  ++++",
"+ . +++++++ ...  +++++++ .  ++++",
"+ .  ++++++ ...  +++++++ .  ++++",
"+ ..  ++++  .  .  ++++++ ..  +++",
" .  .  ++  .    .  ++++  ...  ++",
".    .    .  ++  .  ++  .   .   ",
"  ++  .  .  ++++  .    .     . .",
" ++++  ... ++++++  ....  +++ .. ",
"  ++++  .. +++++++  ..  ++++ .. ",
"   ++++  . ++++++++ .  +++++ ...",
".   +++  .  +++++++ . ++++++ .. ",
" .   ++  ..  ++++++ . ++++++ .  ",
"+ .     .  .  ++++  . ++++++ . +",
"++ .   .    .  ++  .. +++++  . +",
"+++ ...  ++  .    ...  +++  .. +",
"+++ ..  ++++  ....   .     ... +",
"+++ .  ++++++  ..     .....  .  ",
" ++ . +++++++  .  +++  ...  + . ",
"  + . +++++++  .  ++++  .  +++ .",
".   . +++++++  .  +++++ . +++++ "};
