/* XPM */
static char * wall_2_xpm[] = {
"32 32 17 1",
" 	c #ADB591",
".	c #ABA589",
"+	c #85755C",
"@	c #664839",
"#	c #4D381C",
"$	c #948465",
"%	c #ECD093",
"&	c #C7C5A7",
"*	c #A1957A",
"=	c #736244",
"-	c #4D401F",
";	c #916A3B",
">	c #5E4522",
",	c #BA9961",
"'	c #433119",
")	c #382F24",
"!	c #3B2717",
"  ..+@#$%&    .*  ..+@#$%&    .*",
"..***=-%&       ..***=-%&       ",
"++;;;=>&.+++++++++;;;=-&.+++++++",
"++++;=>.++++++++++++;=>.++++++++",
"++++;=>*++++++++++++;=>*++++++++",
"++++;=>*++++++++++++;=>*++++++++",
">>>>-###->-###->>>>>-###->-###->",
"    .*  ..+@#$%&    .*  ..+@#$%&",
"      ..***=-%&       ..***=-%& ",
"++++++++;;;=>&.+++++++++;;;=-&.+",
"++++++++++;=>.++++++++++++;=>.++",
"++++++++++;=>*++++++++++++;=>*++",
"++++++++++;=>*++++++++++++;=>*++",
"##->-###->>>>>-###->-###->>>>>-#",
"  ..+@#$%&    .*  ..+@#$%&    .*",
"..***=-%&       ..***=-%&       ",
"++;;;=>&.+++++++++;;;=-&.+++++++",
"++++;=>.++++++++++++;=>.++++++++",
"++++;=>*++++++++++++;=>*++++++++",
"++++;=>*++++++++++++;=>*++++++++",
">>>>-###->-###->>>>>-###->-###->",
"    .*  ..+@#$%&    .*  ..+@#$&.",
"      ..***=-%&       ..***=-&, ",
"++++++++;;;=>&.+++++++++;;;=>.++",
"++++++++++;=>.++++++++++++;=>.++",
"++++++++++;=>*++++++++++++;=>.++",
"++++;+;+++;=>*++++;+++;+++;=>.++",
";++;;;+;+;;=>*++;;;+;+;+;+;=>.;+",
";;=;;;;;;;;>#>;;;;=;;;;;;;;>#>;;",
">>>>-###->-###->>>>>-###->-###->",
"''')))))''')''))''''')''))))))')",
"!!!!!!!!!!!!!!!!!!!!!!!!!!!!!!!!"};
