/* XPM */
static char * door_16_xpm[] = {
"32 32 5 1",
" 	c #825734",
".	c #980088",
"+	c #4D381C",
"@	c #5E4522",
"#	c #635424",
" .............................. ",
"+..............................+",
"@..............................+",
"@..............................+",
"#..............................+",
"@..............................+",
"#..............................+",
" ..............................+",
" ..............................+",
" ..............................+",
" ..............................+",
" ..............................+",
" ..............................+",
" ..............................+",
" ..............................+",
" ..............................+",
" ..............................+",
" ..............................+",
" ..............................+",
" ..............................+",
" ..............................+",
" ..............................+",
" ..............................+",
"#..............................+",
"#..............................+",
"@..............................+",
"#..............................+",
"@..............................+",
"@..............................+",
"@..............................+",
" .............................. ",
"+..............................+"};
